<svg height="24" viewBox="0 0 24 24" width="24" xmlns="http://www.w3.org/2000/svg"><g fill="none" fill-rule="evenodd"><path d="m12.16 14.912c-.214.82-.943 1.344-1.768 1.344-1.005 0-1.848-.747-1.848-1.832v-1.408c0-1.232 1.082-2.176 2.249-2.318l.166-.023c.834-.147 1.313-.751 1.313-1.531 0-.712-.403-1.288-1.032-1.288-.688 0-1.076.13-1.58.452l-.498.324c-.4.25-.82.376-1.25.376-1.057 0-1.912-.792-1.912-1.832 0-.697.392-1.346 1.072-1.831 1.39-.958 2.473-1.345 4.408-1.345 3.327 0 5.688 2.373 5.688 5.24 0 3.089-2.068 5.157-5.007 5.672zm-1.815 5.088c-1.413 0-2.584-1.244-2.584-2.68 0-1.4 1.184-2.6 2.584-2.6s2.648 1.199 2.648 2.6c0 1.436-1.236 2.68-2.648 2.68z" stroke="#524242" stroke-width="2"/><path d="m9.544 14.424c0 .544.416.832.848.832.384 0 .768-.245.825-.724l.007-.124c0-.192.112-.4.304-.416 2.416-.256 4.64-1.776 4.64-4.752 0-2.08-1.68-4.24-4.688-4.24-2 0-2.912.528-3.84 1.168-.448.32-.64.688-.64 1.008 0 .464.384.832.912.832.224 0 .464-.064.72-.224l.482-.314c.497-.317 1.082-.614 2.126-.614 1.488 0 2.032 1.392 2.032 2.288 0 1.163-.732 2.268-2.14 2.516l-.196.028c-.656.08-1.392.608-1.392 1.328zm.8 4.576c-.848 0-1.584-.784-1.584-1.68 0-.848.736-1.6 1.584-1.6s1.648.752 1.648 1.6c0 .896-.8 1.68-1.648 1.68z" fill="#fff" fill-rule="nonzero"/></g></svg>