<svg width="32" height="24" viewBox="0 0 32 24" xmlns="http://www.w3.org/2000/svg"><path d="M4 0l12 12L4 24H0V0h4zm16.5 14l.07.36c.455 2.302.93 2.68 3.43 3.14l-.53.103c-2.152.448-2.522.96-2.97 3.397l-.07-.36c-.455-2.304-.93-2.681-3.43-3.14l.36-.069c2.303-.457 2.68-.931 3.14-3.431zm6.001-11l.126.656C27.337 7.193 28.104 7.783 32 8.5l-.656.126c-3.538.713-4.128 1.479-4.845 5.374l-.126-.656c-.71-3.54-1.477-4.13-5.373-4.844l.656-.126C25.194 7.661 25.784 6.895 26.5 3z" fill="#B08349" fill-rule="evenodd"/></svg>