<svg width="264" height="16" viewBox="0 0 264 16" xmlns="http://www.w3.org/2000/svg"><path d="M273.065 16H-9.065a4.02 4.02 0 0 1-3.926-3.74 4.013 4.013 0 0 1 3.392-4.226 3.993 3.993 0 0 1 .554-5.216 4.045 4.045 0 0 1 5.268-.205A4.028 4.028 0 0 1 0 0a4.028 4.028 0 0 1 3.777 2.613 4.045 4.045 0 0 1 5.268.205A3.993 3.993 0 0 1 9.6 8.034c.964.151 1.8.634 2.401 1.316a4.023 4.023 0 0 1 2.401-1.316 3.993 3.993 0 0 1 .554-5.216 4.045 4.045 0 0 1 5.268-.205A4.028 4.028 0 0 1 24 0a4.028 4.028 0 0 1 3.777 2.613 4.045 4.045 0 0 1 5.268.205 3.993 3.993 0 0 1 .554 5.216c.964.151 1.8.634 2.401 1.316a4.023 4.023 0 0 1 2.401-1.316 3.993 3.993 0 0 1 .554-5.216 4.045 4.045 0 0 1 5.268-.205A4.028 4.028 0 0 1 48 0a4.028 4.028 0 0 1 3.777 2.613 4.045 4.045 0 0 1 5.268.205 3.993 3.993 0 0 1 .554 5.216c.964.151 1.8.634 2.401 1.316a4.023 4.023 0 0 1 2.401-1.316 3.993 3.993 0 0 1 .554-5.216 4.045 4.045 0 0 1 5.268-.205A4.028 4.028 0 0 1 72 0a4.028 4.028 0 0 1 3.777 2.613 4.045 4.045 0 0 1 5.268.205 3.993 3.993 0 0 1 .554 5.216c.964.151 1.8.634 2.401 1.316a4.023 4.023 0 0 1 2.401-1.316 3.993 3.993 0 0 1 .554-5.216 4.045 4.045 0 0 1 5.268-.205A4.028 4.028 0 0 1 96 0a4.028 4.028 0 0 1 3.777 2.613 4.045 4.045 0 0 1 5.268.205 3.993 3.993 0 0 1 .554 5.216c.964.151 1.8.634 2.401 1.316a4.023 4.023 0 0 1 2.401-1.316 3.993 3.993 0 0 1 .554-5.216 4.045 4.045 0 0 1 5.268-.205A4.028 4.028 0 0 1 120 0a4.028 4.028 0 0 1 3.777 2.613 4.045 4.045 0 0 1 5.268.205 3.993 3.993 0 0 1 .554 5.216c.964.151 1.8.634 2.401 1.316a4.023 4.023 0 0 1 2.401-1.316 3.993 3.993 0 0 1 .554-5.216 4.045 4.045 0 0 1 5.268-.205A4.028 4.028 0 0 1 144 0a4.028 4.028 0 0 1 3.777 2.613 4.045 4.045 0 0 1 5.268.205 3.993 3.993 0 0 1 .554 5.216c.964.151 1.8.634 2.401 1.316a4.023 4.023 0 0 1 2.401-1.316 3.993 3.993 0 0 1 .554-5.216 4.045 4.045 0 0 1 5.268-.205A4.028 4.028 0 0 1 168 0a4.028 4.028 0 0 1 3.777 2.613 4.045 4.045 0 0 1 5.268.205 3.993 3.993 0 0 1 .554 5.216c.964.151 1.8.634 2.401 1.316a4.023 4.023 0 0 1 2.401-1.316 3.993 3.993 0 0 1 .554-5.216 4.045 4.045 0 0 1 5.268-.205A4.028 4.028 0 0 1 192 0a4.028 4.028 0 0 1 3.777 2.613 4.045 4.045 0 0 1 5.268.205 3.993 3.993 0 0 1 .554 5.216c.964.151 1.8.634 2.401 1.316a4.023 4.023 0 0 1 2.401-1.316 3.993 3.993 0 0 1 .554-5.216 4.045 4.045 0 0 1 5.268-.205A4.028 4.028 0 0 1 216 0a4.028 4.028 0 0 1 3.777 2.613 4.045 4.045 0 0 1 5.268.205 3.993 3.993 0 0 1 .554 5.216c.964.151 1.8.634 2.401 1.316a4.023 4.023 0 0 1 2.401-1.316 3.993 3.993 0 0 1 .554-5.216 4.045 4.045 0 0 1 5.268-.205A4.028 4.028 0 0 1 240 0a4.028 4.028 0 0 1 3.777 2.613 4.045 4.045 0 0 1 5.268.205 3.993 3.993 0 0 1 .554 5.216c.964.151 1.8.634 2.401 1.316a4.023 4.023 0 0 1 2.401-1.316 3.993 3.993 0 0 1 .554-5.216 4.045 4.045 0 0 1 5.268-.205A4.028 4.028 0 0 1 264 0a4.028 4.028 0 0 1 3.777 2.613 4.045 4.045 0 0 1 5.268.205 3.993 3.993 0 0 1 .554 5.216 4.013 4.013 0 0 1 3.392 4.226 4.02 4.02 0 0 1-3.926 3.74zm-94.039-4.468a2.013 2.013 0 0 0-1.96-1.544 9.788 9.788 0 0 0-3.617 1.072 1.12 1.12 0 0 0 0 1.864 9.788 9.788 0 0 0 3.616 1.072c.954 0 1.753-.66 1.961-1.545a4.041 4.041 0 0 1 0-.919zm-22.052.92a2.013 2.013 0 0 0 1.96 1.544 9.788 9.788 0 0 0 3.617-1.072 1.12 1.12 0 0 0 0-1.864 9.788 9.788 0 0 0-3.616-1.072c-.954 0-1.752.659-1.961 1.544a4.003 4.003 0 0 1 0 .92zm-1.948-.92a2.013 2.013 0 0 0-1.96-1.544 9.788 9.788 0 0 0-3.617 1.072 1.12 1.12 0 0 0 0 1.864 9.788 9.788 0 0 0 3.616 1.072c.954 0 1.753-.66 1.961-1.545a4.041 4.041 0 0 1 0-.919zm25.948.92a2.013 2.013 0 0 0 1.96 1.544 9.788 9.788 0 0 0 3.617-1.072 1.12 1.12 0 0 0 0-1.864 9.788 9.788 0 0 0-3.616-1.072c-.954 0-1.752.659-1.961 1.544a4.003 4.003 0 0 1 0 .92zm46.052 0a4.041 4.041 0 0 1 0-.92 2.013 2.013 0 0 0-1.96-1.544 9.788 9.788 0 0 0-3.617 1.072 1.12 1.12 0 0 0 0 1.864 9.788 9.788 0 0 0 3.616 1.072c.954 0 1.753-.66 1.961-1.545zm-22.052 0a2.013 2.013 0 0 0 1.96 1.544 9.788 9.788 0 0 0 3.617-1.072 1.12 1.12 0 0 0 0-1.864 9.788 9.788 0 0 0-3.616-1.072c-.954 0-1.752.659-1.961 1.544a4.003 4.003 0 0 1 0 .92zm-1.948-.92a2.013 2.013 0 0 0-1.96-1.544 9.788 9.788 0 0 0-3.617 1.072 1.12 1.12 0 0 0 0 1.864 9.788 9.788 0 0 0 3.616 1.072c.954 0 1.753-.66 1.961-1.545a4.041 4.041 0 0 1 0-.919zm25.948.92a2.013 2.013 0 0 0 1.96 1.544 9.788 9.788 0 0 0 3.617-1.072 1.12 1.12 0 0 0 0-1.864 9.788 9.788 0 0 0-3.616-1.072c-.954 0-1.752.659-1.961 1.544a4.003 4.003 0 0 1 0 .92zm24 0a2.013 2.013 0 0 0 1.96 1.544 9.788 9.788 0 0 0 3.617-1.072 1.12 1.12 0 0 0 0-1.864 9.788 9.788 0 0 0-3.616-1.072c-.954 0-1.752.659-1.961 1.544a4.003 4.003 0 0 1 0 .92zm-1.948-.92a2.013 2.013 0 0 0-1.96-1.544 9.788 9.788 0 0 0-3.617 1.072 1.12 1.12 0 0 0 0 1.864 9.788 9.788 0 0 0 3.616 1.072c.954 0 1.753-.66 1.961-1.545a4.041 4.041 0 0 1 0-.919zm-118.052 0a4.003 4.003 0 0 1 0 .92 2.013 2.013 0 0 0 1.96 1.544 9.788 9.788 0 0 0 3.617-1.072 1.12 1.12 0 0 0 0-1.864 9.788 9.788 0 0 0-3.616-1.072c-.954 0-1.752.659-1.961 1.544zm-1.948 0a2.013 2.013 0 0 0-1.96-1.544 9.788 9.788 0 0 0-3.617 1.072 1.12 1.12 0 0 0 0 1.864 9.788 9.788 0 0 0 3.616 1.072c.954 0 1.753-.66 1.961-1.545a4.041 4.041 0 0 1 0-.919zm-96 0a2.013 2.013 0 0 0-1.96-1.544 9.788 9.788 0 0 0-3.617 1.072 1.12 1.12 0 0 0 0 1.864 9.788 9.788 0 0 0 3.616 1.072c.954 0 1.753-.66 1.961-1.545a4.04 4.04 0 0 1 0-.919zm-22.052.92a2.013 2.013 0 0 0 1.96 1.544 9.788 9.788 0 0 0 3.617-1.072 1.12 1.12 0 0 0 0-1.864 9.788 9.788 0 0 0-3.616-1.072c-.954 0-1.752.659-1.961 1.544a4.003 4.003 0 0 1 0 .92zm-1.948-.92a2.013 2.013 0 0 0-1.96-1.544 9.788 9.788 0 0 0-3.617 1.072 1.12 1.12 0 0 0 0 1.864 9.788 9.788 0 0 0 3.616 1.072c.954 0 1.753-.66 1.961-1.545a4.04 4.04 0 0 1 0-.919zm25.948.92a2.013 2.013 0 0 0 1.96 1.544 9.788 9.788 0 0 0 3.617-1.072 1.12 1.12 0 0 0 0-1.864 9.788 9.788 0 0 0-3.616-1.072c-.954 0-1.752.659-1.961 1.544a4.003 4.003 0 0 1 0 .92zm46.052 0a4.04 4.04 0 0 1 0-.92 2.013 2.013 0 0 0-1.96-1.544 9.788 9.788 0 0 0-3.617 1.072 1.12 1.12 0 0 0 0 1.864 9.788 9.788 0 0 0 3.616 1.072c.954 0 1.753-.66 1.961-1.545zm-22.052 0a2.013 2.013 0 0 0 1.96 1.544 9.788 9.788 0 0 0 3.617-1.072 1.12 1.12 0 0 0 0-1.864 9.788 9.788 0 0 0-3.616-1.072c-.954 0-1.752.659-1.961 1.544a4.003 4.003 0 0 1 0 .92zm-1.948-.92a2.013 2.013 0 0 0-1.96-1.544 9.788 9.788 0 0 0-3.617 1.072 1.12 1.12 0 0 0 0 1.864 9.788 9.788 0 0 0 3.616 1.072c.954 0 1.753-.66 1.961-1.545a4.04 4.04 0 0 1 0-.919zm25.948.92a2.013 2.013 0 0 0 1.96 1.544 9.788 9.788 0 0 0 3.617-1.072 1.12 1.12 0 0 0 0-1.864 9.788 9.788 0 0 0-3.616-1.072c-.954 0-1.752.659-1.961 1.544a4.003 4.003 0 0 1 0 .92zm24 0a2.013 2.013 0 0 0 1.96 1.544 9.788 9.788 0 0 0 3.617-1.072 1.12 1.12 0 0 0 0-1.864 9.788 9.788 0 0 0-3.616-1.072c-.954 0-1.752.659-1.961 1.544a4.003 4.003 0 0 1 0 .92zm-1.948-.92a2.013 2.013 0 0 0-1.96-1.544 9.788 9.788 0 0 0-3.617 1.072 1.12 1.12 0 0 0 0 1.864 9.788 9.788 0 0 0 3.616 1.072c.954 0 1.753-.66 1.961-1.545a4.041 4.041 0 0 1 0-.919zM0 1.972a2.01 2.01 0 0 0-2.014 2.004A2.01 2.01 0 0 0 0 5.98a2.01 2.01 0 0 0 2.014-2.004A2.01 2.01 0 0 0 0 1.972zm-5.45 10.952a1.12 1.12 0 0 0 0-1.864 9.788 9.788 0 0 0-3.615-1.072 2.01 2.01 0 0 0-2.015 2.004 2.01 2.01 0 0 0 2.015 2.004 9.788 9.788 0 0 0 3.616-1.072zm.938-4.108c.367.07.744-.046 1.009-.31.264-.262.38-.638.31-1.003a9.574 9.574 0 0 0-1.793-3.307 2.023 2.023 0 0 0-2.85 0 1.998 1.998 0 0 0 0 2.836 9.655 9.655 0 0 0 3.324 1.784zm8.057 3.517h-.04a.48.48 0 0 0-.12-.471l-1.18-1.193a.48.48 0 0 1-.14-.44l.282-1.684a.48.48 0 0 0-.192-.47.445.445 0 0 0-.493 0l-1.46.79a.455.455 0 0 1-.424 0l-1.46-.79a.445.445 0 0 0-.494 0 .48.48 0 0 0-.191.47l.302 1.673a.49.49 0 0 1-.13.441l-1.19 1.193a.51.51 0 0 0-.12.5.463.463 0 0 0 .383.321l1.672.25a.473.473 0 0 1 .352.261l.735 1.533a.453.453 0 0 0 .846 0l.736-1.533a.471.471 0 0 1 .352-.26l1.632-.25a.442.442 0 0 0 .342-.341zm-.312-4.83h-.04a1.12 1.12 0 0 0 .323 1.03c.278.266.672.372 1.047.283a9.655 9.655 0 0 0 3.324-1.784 1.997 1.997 0 0 0 .521-1.937 2.01 2.01 0 0 0-1.425-1.418 2.023 2.023 0 0 0-1.947.52 9.574 9.574 0 0 0-1.803 3.306zM48 1.972a2.01 2.01 0 0 0-2.014 2.004A2.01 2.01 0 0 0 48 5.98a2.01 2.01 0 0 0 2.014-2.004A2.01 2.01 0 0 0 48 1.972zm-4.512 6.844c.367.07.744-.046 1.009-.31.264-.262.38-.638.31-1.003a9.574 9.574 0 0 0-1.793-3.307 2.023 2.023 0 0 0-2.85 0 1.998 1.998 0 0 0 0 2.836 9.655 9.655 0 0 0 3.324 1.784zm8.057 3.517h-.04a.48.48 0 0 0-.12-.471l-1.18-1.193a.48.48 0 0 1-.14-.44l.282-1.684a.48.48 0 0 0-.192-.47.445.445 0 0 0-.493 0l-1.46.79a.455.455 0 0 1-.424 0l-1.46-.79a.445.445 0 0 0-.494 0 .48.48 0 0 0-.191.47l.302 1.673a.49.49 0 0 1-.13.441l-1.19 1.193a.51.51 0 0 0-.12.5.463.463 0 0 0 .383.321l1.672.25a.473.473 0 0 1 .352.261l.735 1.533a.453.453 0 0 0 .846 0l.736-1.533a.471.471 0 0 1 .352-.26l1.632-.25a.442.442 0 0 0 .342-.341zm-.312-4.83h-.04a1.12 1.12 0 0 0 .323 1.03c.278.266.672.372 1.047.283a9.655 9.655 0 0 0 3.324-1.784 1.997 1.997 0 0 0 .521-1.937 2.01 2.01 0 0 0-1.425-1.418 2.023 2.023 0 0 0-1.947.52 9.574 9.574 0 0 0-1.803 3.306zM96 1.972a2.01 2.01 0 0 0-2.014 2.004A2.01 2.01 0 0 0 96 5.98a2.01 2.01 0 0 0 2.014-2.004A2.01 2.01 0 0 0 96 1.972zm-4.512 6.844c.367.07.744-.046 1.009-.31.264-.262.38-.638.31-1.003a9.574 9.574 0 0 0-1.793-3.307 2.023 2.023 0 0 0-2.85 0 1.998 1.998 0 0 0 0 2.836 9.655 9.655 0 0 0 3.324 1.784zm8.057 3.517h-.04a.48.48 0 0 0-.12-.471l-1.18-1.193a.48.48 0 0 1-.14-.44l.282-1.684a.48.48 0 0 0-.192-.47.445.445 0 0 0-.493 0l-1.46.79a.455.455 0 0 1-.424 0l-1.46-.79a.445.445 0 0 0-.494 0 .48.48 0 0 0-.191.47l.302 1.673a.49.49 0 0 1-.13.441l-1.19 1.193a.51.51 0 0 0-.12.5.463.463 0 0 0 .383.321l1.672.25a.473.473 0 0 1 .352.261l.735 1.533a.453.453 0 0 0 .846 0l.736-1.533a.471.471 0 0 1 .352-.26l1.632-.25a.442.442 0 0 0 .342-.341zm-.312-4.83h-.04a1.12 1.12 0 0 0 .323 1.03c.278.266.672.372 1.047.283a9.655 9.655 0 0 0 3.324-1.784 1.997 1.997 0 0 0 .521-1.937 2.01 2.01 0 0 0-1.425-1.418 2.023 2.023 0 0 0-1.947.52 9.574 9.574 0 0 0-1.803 3.306zM120 1.972a2.01 2.01 0 0 0-2.014 2.004A2.01 2.01 0 0 0 120 5.98a2.01 2.01 0 0 0 2.014-2.004A2.01 2.01 0 0 0 120 1.972zm-4.512 6.844c.367.07.744-.046 1.009-.31.264-.262.38-.638.31-1.003a9.574 9.574 0 0 0-1.793-3.307 2.023 2.023 0 0 0-2.85 0 1.998 1.998 0 0 0 0 2.836 9.655 9.655 0 0 0 3.324 1.784zm8.057 3.517h-.04a.48.48 0 0 0-.12-.471l-1.18-1.193a.48.48 0 0 1-.14-.44l.282-1.684a.48.48 0 0 0-.192-.47.445.445 0 0 0-.493 0l-1.46.79a.455.455 0 0 1-.424 0l-1.46-.79a.445.445 0 0 0-.494 0 .48.48 0 0 0-.191.47l.302 1.673a.49.49 0 0 1-.13.441l-1.19 1.193a.51.51 0 0 0-.12.5.463.463 0 0 0 .383.321l1.672.25a.473.473 0 0 1 .352.261l.735 1.533a.453.453 0 0 0 .846 0l.736-1.533a.471.471 0 0 1 .352-.26l1.632-.25a.442.442 0 0 0 .342-.341zm-.312-4.83h-.04a1.12 1.12 0 0 0 .323 1.03c.278.266.672.372 1.047.283a9.655 9.655 0 0 0 3.324-1.784 1.997 1.997 0 0 0 .521-1.937 2.01 2.01 0 0 0-1.425-1.418 2.023 2.023 0 0 0-1.947.52 9.574 9.574 0 0 0-1.803 3.306zM72 1.972a2.01 2.01 0 0 0-2.014 2.004A2.01 2.01 0 0 0 72 5.98a2.01 2.01 0 0 0 2.014-2.004A2.01 2.01 0 0 0 72 1.972zm-4.512 6.844c.367.07.744-.046 1.009-.31.264-.262.38-.638.31-1.003a9.574 9.574 0 0 0-1.793-3.307 2.023 2.023 0 0 0-2.85 0 1.998 1.998 0 0 0 0 2.836 9.655 9.655 0 0 0 3.324 1.784zm8.057 3.517h-.04a.48.48 0 0 0-.12-.471l-1.18-1.193a.48.48 0 0 1-.14-.44l.282-1.684a.48.48 0 0 0-.192-.47.445.445 0 0 0-.493 0l-1.46.79a.455.455 0 0 1-.424 0l-1.46-.79a.445.445 0 0 0-.494 0 .48.48 0 0 0-.191.47l.302 1.673a.49.49 0 0 1-.13.441l-1.19 1.193a.51.51 0 0 0-.12.5.463.463 0 0 0 .383.321l1.672.25a.473.473 0 0 1 .352.261l.735 1.533a.453.453 0 0 0 .846 0l.736-1.533a.471.471 0 0 1 .352-.26l1.632-.25a.442.442 0 0 0 .342-.341zm-.312-4.83h-.04a1.12 1.12 0 0 0 .323 1.03c.278.266.672.372 1.047.283a9.655 9.655 0 0 0 3.324-1.784 1.997 1.997 0 0 0 .521-1.937 2.01 2.01 0 0 0-1.425-1.418 2.023 2.023 0 0 0-1.947.52 9.574 9.574 0 0 0-1.803 3.306zM24 1.972a2.01 2.01 0 0 0-2.014 2.004A2.01 2.01 0 0 0 24 5.98a2.01 2.01 0 0 0 2.014-2.004A2.01 2.01 0 0 0 24 1.972zm-4.512 6.844c.367.07.744-.046 1.009-.31.264-.262.38-.638.31-1.003a9.574 9.574 0 0 0-1.793-3.307 2.023 2.023 0 0 0-2.85 0 1.998 1.998 0 0 0 0 2.836 9.655 9.655 0 0 0 3.324 1.784zm8.057 3.517h-.04a.48.48 0 0 0-.12-.471l-1.18-1.193a.48.48 0 0 1-.14-.44l.282-1.684a.48.48 0 0 0-.192-.47.445.445 0 0 0-.493 0l-1.46.79a.455.455 0 0 1-.424 0l-1.46-.79a.445.445 0 0 0-.494 0 .48.48 0 0 0-.191.47l.302 1.673a.49.49 0 0 1-.13.441l-1.19 1.193a.51.51 0 0 0-.12.5.463.463 0 0 0 .383.321l1.672.25a.473.473 0 0 1 .352.261l.735 1.533a.453.453 0 0 0 .846 0l.736-1.533a.471.471 0 0 1 .352-.26l1.632-.25a.442.442 0 0 0 .342-.341zm-.312-4.83h-.04a1.12 1.12 0 0 0 .323 1.03c.278.266.672.372 1.047.283a9.655 9.655 0 0 0 3.324-1.784 1.997 1.997 0 0 0 .521-1.937 2.01 2.01 0 0 0-1.425-1.418 2.023 2.023 0 0 0-1.947.52 9.574 9.574 0 0 0-1.803 3.306zM144 1.972a2.01 2.01 0 0 0-2.014 2.004A2.01 2.01 0 0 0 144 5.98a2.01 2.01 0 0 0 2.014-2.004A2.01 2.01 0 0 0 144 1.972zm-4.512 6.844c.367.07.744-.046 1.009-.31.264-.262.38-.638.31-1.003a9.574 9.574 0 0 0-1.793-3.307 2.023 2.023 0 0 0-2.85 0 1.998 1.998 0 0 0 0 2.836 9.655 9.655 0 0 0 3.324 1.784zm8.057 3.517h-.04a.48.48 0 0 0-.12-.471l-1.18-1.193a.48.48 0 0 1-.14-.44l.282-1.684a.48.48 0 0 0-.192-.47.445.445 0 0 0-.493 0l-1.46.79a.455.455 0 0 1-.424 0l-1.46-.79a.445.445 0 0 0-.494 0 .48.48 0 0 0-.191.47l.302 1.673a.49.49 0 0 1-.13.441l-1.19 1.193a.51.51 0 0 0-.12.5.463.463 0 0 0 .383.321l1.672.25a.473.473 0 0 1 .352.261l.735 1.533a.453.453 0 0 0 .846 0l.736-1.533a.471.471 0 0 1 .352-.26l1.632-.25a.442.442 0 0 0 .342-.341zm-.312-4.83h-.04a1.12 1.12 0 0 0 .323 1.03c.278.266.672.372 1.047.283a9.655 9.655 0 0 0 3.324-1.784 1.997 1.997 0 0 0 .521-1.937 2.01 2.01 0 0 0-1.425-1.418 2.023 2.023 0 0 0-1.947.52 9.574 9.574 0 0 0-1.803 3.306zM192 1.972a2.01 2.01 0 0 0-2.014 2.004A2.01 2.01 0 0 0 192 5.98a2.01 2.01 0 0 0 2.014-2.004A2.01 2.01 0 0 0 192 1.972zm-4.512 6.844c.367.07.744-.046 1.009-.31.264-.262.38-.638.31-1.003a9.574 9.574 0 0 0-1.793-3.307 2.023 2.023 0 0 0-2.85 0 1.998 1.998 0 0 0 0 2.836 9.655 9.655 0 0 0 3.324 1.784zm8.057 3.517h-.04a.48.48 0 0 0-.12-.471l-1.18-1.193a.48.48 0 0 1-.14-.44l.282-1.684a.48.48 0 0 0-.192-.47.445.445 0 0 0-.493 0l-1.46.79a.455.455 0 0 1-.424 0l-1.46-.79a.445.445 0 0 0-.494 0 .48.48 0 0 0-.191.47l.302 1.673a.49.49 0 0 1-.13.441l-1.19 1.193a.51.51 0 0 0-.12.5.463.463 0 0 0 .383.321l1.672.25a.473.473 0 0 1 .352.261l.735 1.533a.453.453 0 0 0 .846 0l.736-1.533a.471.471 0 0 1 .352-.26l1.632-.25a.442.442 0 0 0 .342-.341zm-.312-4.83h-.04a1.12 1.12 0 0 0 .323 1.03c.278.266.672.372 1.047.283a9.655 9.655 0 0 0 3.324-1.784 1.997 1.997 0 0 0 .521-1.937 2.01 2.01 0 0 0-1.425-1.418 2.023 2.023 0 0 0-1.947.52 9.574 9.574 0 0 0-1.803 3.306zM240 1.972a2.01 2.01 0 0 0-2.014 2.004A2.01 2.01 0 0 0 240 5.98a2.01 2.01 0 0 0 2.014-2.004A2.01 2.01 0 0 0 240 1.972zm-4.512 6.844c.367.07.744-.046 1.009-.31.264-.262.38-.638.31-1.003a9.574 9.574 0 0 0-1.793-3.307 2.023 2.023 0 0 0-2.85 0 1.998 1.998 0 0 0 0 2.836 9.655 9.655 0 0 0 3.324 1.784zm8.057 3.517h-.04a.48.48 0 0 0-.12-.471l-1.18-1.193a.48.48 0 0 1-.14-.44l.282-1.684a.48.48 0 0 0-.192-.47.445.445 0 0 0-.493 0l-1.46.79a.455.455 0 0 1-.424 0l-1.46-.79a.445.445 0 0 0-.494 0 .48.48 0 0 0-.191.47l.302 1.673a.49.49 0 0 1-.13.441l-1.19 1.193a.51.51 0 0 0-.12.5.463.463 0 0 0 .383.321l1.672.25a.473.473 0 0 1 .352.261l.735 1.533a.453.453 0 0 0 .846 0l.736-1.533a.471.471 0 0 1 .352-.26l1.632-.25a.442.442 0 0 0 .342-.341zm-.312-4.83h-.04a1.12 1.12 0 0 0 .323 1.03c.278.266.672.372 1.047.283a9.655 9.655 0 0 0 3.324-1.784 1.997 1.997 0 0 0 .521-1.937 2.01 2.01 0 0 0-1.425-1.418 2.023 2.023 0 0 0-1.947.52 9.574 9.574 0 0 0-1.803 3.306zM264 1.972a2.01 2.01 0 0 0-2.014 2.004A2.01 2.01 0 0 0 264 5.98a2.01 2.01 0 0 0 2.014-2.004A2.01 2.01 0 0 0 264 1.972zm-4.512 6.844c.367.07.744-.046 1.009-.31.264-.262.38-.638.31-1.003a9.574 9.574 0 0 0-1.793-3.307 2.023 2.023 0 0 0-2.85 0 1.998 1.998 0 0 0 0 2.836 9.655 9.655 0 0 0 3.324 1.784zm8.057 3.517h-.04a.48.48 0 0 0-.12-.471l-1.18-1.193a.48.48 0 0 1-.14-.44l.282-1.684a.48.48 0 0 0-.192-.47.445.445 0 0 0-.493 0l-1.46.79a.455.455 0 0 1-.424 0l-1.46-.79a.445.445 0 0 0-.494 0 .48.48 0 0 0-.191.47l.302 1.673a.49.49 0 0 1-.13.441l-1.19 1.193a.51.51 0 0 0-.12.5.463.463 0 0 0 .383.321l1.672.25a.473.473 0 0 1 .352.261l.735 1.533a.453.453 0 0 0 .846 0l.736-1.533a.471.471 0 0 1 .352-.26l1.632-.25a.442.442 0 0 0 .342-.341zm-.312-4.83h-.04a1.12 1.12 0 0 0 .323 1.03c.278.266.672.372 1.047.283a9.655 9.655 0 0 0 3.324-1.784 1.997 1.997 0 0 0 .521-1.937 2.01 2.01 0 0 0-1.425-1.418 2.023 2.023 0 0 0-1.947.52 9.574 9.574 0 0 0-1.803 3.306zm5.832 6.493a2.01 2.01 0 0 0 2.015-2.004 2.01 2.01 0 0 0-2.015-2.004 9.788 9.788 0 0 0-3.616 1.072 1.12 1.12 0 0 0 0 1.864 9.788 9.788 0 0 0 3.616 1.072zM216 1.972a2.01 2.01 0 0 0-2.014 2.004A2.01 2.01 0 0 0 216 5.98a2.01 2.01 0 0 0 2.014-2.004A2.01 2.01 0 0 0 216 1.972zm-4.512 6.844c.367.07.744-.046 1.009-.31.264-.262.38-.638.31-1.003a9.574 9.574 0 0 0-1.793-3.307 2.023 2.023 0 0 0-2.85 0 1.998 1.998 0 0 0 0 2.836 9.655 9.655 0 0 0 3.324 1.784zm8.057 3.517h-.04a.48.48 0 0 0-.12-.471l-1.18-1.193a.48.48 0 0 1-.14-.44l.282-1.684a.48.48 0 0 0-.192-.47.445.445 0 0 0-.493 0l-1.46.79a.455.455 0 0 1-.424 0l-1.46-.79a.445.445 0 0 0-.494 0 .48.48 0 0 0-.191.47l.302 1.673a.49.49 0 0 1-.13.441l-1.19 1.193a.51.51 0 0 0-.12.5.463.463 0 0 0 .383.321l1.672.25a.473.473 0 0 1 .352.261l.735 1.533a.453.453 0 0 0 .846 0l.736-1.533a.471.471 0 0 1 .352-.26l1.632-.25a.442.442 0 0 0 .342-.341zm-.312-4.83h-.04a1.12 1.12 0 0 0 .323 1.03c.278.266.672.372 1.047.283a9.655 9.655 0 0 0 3.324-1.784 1.997 1.997 0 0 0 .521-1.937 2.01 2.01 0 0 0-1.425-1.418 2.023 2.023 0 0 0-1.947.52 9.574 9.574 0 0 0-1.803 3.306zM168 1.972a2.01 2.01 0 0 0-2.014 2.004A2.01 2.01 0 0 0 168 5.98a2.01 2.01 0 0 0 2.014-2.004A2.01 2.01 0 0 0 168 1.972zm-4.512 6.844c.367.07.744-.046 1.009-.31.264-.262.38-.638.31-1.003a9.574 9.574 0 0 0-1.793-3.307 2.023 2.023 0 0 0-2.85 0 1.998 1.998 0 0 0 0 2.836 9.655 9.655 0 0 0 3.324 1.784zm8.057 3.517h-.04a.48.48 0 0 0-.12-.471l-1.18-1.193a.48.48 0 0 1-.14-.44l.282-1.684a.48.48 0 0 0-.192-.47.445.445 0 0 0-.493 0l-1.46.79a.455.455 0 0 1-.424 0l-1.46-.79a.445.445 0 0 0-.494 0 .48.48 0 0 0-.191.47l.302 1.673a.49.49 0 0 1-.13.441l-1.19 1.193a.51.51 0 0 0-.12.5.463.463 0 0 0 .383.321l1.672.25a.473.473 0 0 1 .352.261l.735 1.533a.453.453 0 0 0 .846 0l.736-1.533a.471.471 0 0 1 .352-.26l1.632-.25a.442.442 0 0 0 .342-.341zm-.312-4.83h-.04a1.12 1.12 0 0 0 .323 1.03c.278.266.672.372 1.047.283a9.655 9.655 0 0 0 3.324-1.784 1.997 1.997 0 0 0 .521-1.937 2.01 2.01 0 0 0-1.425-1.418 2.023 2.023 0 0 0-1.947.52 9.574 9.574 0 0 0-1.803 3.306z" fill="#FCFCFC"/></svg>