<svg fill="none" height="100" viewBox="0 0 390 100" width="390" xmlns="http://www.w3.org/2000/svg"><path clip-rule="evenodd" d="m184.804 6c-2.176.55259-2.502 1-2.902 4-.4-3-.726-3.44741-2.902-4 2.176-.55259 2.502-1 2.902-4 .402 3 .726 3.44741 2.902 4zm99 22c.8-6 1.452-6.8948 5.805-8-4.353-1.1052-5.002-2-5.805-8-.8 6-1.451 6.8948-5.804 8 4.353 1.1052 5.004 2 5.804 8zm74.452 8c1-7.5 1.814-8.6185 7.255-10-5.441-1.3815-6.252-2.5-7.255-10-1 7.5-1.815 8.6185-7.256 10 5.441 1.3815 6.256 2.5 7.256 10zm-316.0004 10c1-7.5 1.8148-8.6185 7.2555-10-5.4407-1.3815-6.2518-2.5-7.2555-10-1 7.5-1.8149 8.6185-7.2556 10 5.4407 1.3815 6.2556 2.5 7.2556 10zm216.1574-8c-6.529 1.6578-7.506 3-8.706 12-1.2-9-2.178-10.3422-8.707-12 6.529-1.6578 7.507-3 8.707-12 1.204 9 2.177 10.3422 8.706 12zm-151 29c-6.529 1.6578-7.5063 3-8.7063 12-1.2-9-2.1778-10.3422-8.7067-12 6.5289-1.6578 7.5067-3 8.7067-12 1.2044 9 2.1773 10.3422 8.7063 12zm218.098 10c-5.441 1.3815-6.255 2.5-7.255 10-1-7.5-1.815-8.6185-7.256-10 5.441-1.3815 6.256-2.5 7.256-10 1.003 7.5 1.814 8.6185 7.255 10zm-131-12c-5.441 1.3815-6.255 2.5-7.255 10-1-7.5-1.815-8.6185-7.256-10 5.441-1.3815 6.256-2.5 7.256-10 1.003 7.5 1.814 8.6185 7.255 10zm-165.7066 14c.8-6 1.4519-6.8948 5.8045-8-4.3526-1.1052-5.0015-2-5.8045-8-.8 6-1.4518 6.8948-5.8044 8 4.3526 1.1052 5.0044 2 5.8044 8zm56.8045-55c-4.3526 1.1052-5.0045 2-5.8045 8-.8-6-1.4518-6.8948-5.8044-8 4.3526-1.1052 5.0044-2 5.8044-8 .803 6 1.4519 6.8948 5.8045 8zm37.1951 69c.8-6 1.452-6.8948 5.805-8-4.353-1.1052-5.002-2-5.805-8-.8 6-1.451 6.8948-5.804 8 4.353 1.1052 5.004 2 5.804 8zm44.805-46c-4.353 1.1052-5.005 2-5.805 8-.8-6-1.451-6.8948-5.804-8 4.353-1.1052 5.004-2 5.804-8 .803 6 1.452 6.8948 5.805 8zm112.195 48c.8-6 1.452-6.8948 5.805-8-4.353-1.1052-5.002-2-5.805-8-.8 6-1.451 6.8948-5.804 8 4.353 1.1052 5.004 2 5.804 8zm60.805-45c-4.353 1.1052-5.005 2-5.805 8-.8-6-1.451-6.8948-5.804-8 4.353-1.1052 5.004-2 5.804-8 .803 6 1.452 6.8948 5.805 8zm-322.8046 0c-2.1763.5526-2.5022 1-2.9022 4-.4-3-.7259-3.4474-2.9022-4 2.1763-.5526 2.5022-1 2.9022-4 .4015 3 .7259 3.4474 2.9022 4zm279.0976 23c.4-3 .726-3.4474 2.902-4-2.176-.5526-2.5-1-2.902-4-.4 3-.726 3.4474-2.902 4 2.176.5526 2.502 1 2.902 4zm-168-11c.4-3 .726-3.4474 2.902-4-2.176-.5526-2.5-1-2.902-4-.4 3-.726 3.4474-2.902 4 2.176.5526 2.502 1 2.902 4zm79.902-40c-2.176.5526-2.502 1-2.902 4-.4-3-.726-3.4474-2.902-4 2.176-.5526 2.502-1 2.902-4 .402 3 .726 3.4474 2.902 4zm32.098 57c.4-3 .726-3.4474 2.902-4-2.176-.5526-2.5-1-2.902-4-.4 3-.726 3.4474-2.902 4 2.176.5526 2.502 1 2.902 4zm122.902 2c-2.176.5526-2.502 1-2.902 4-.4-3-.726-3.4474-2.902-4 2.176-.5526 2.502-1 2.902-4 .402 3 .726 3.4474 2.902 4zm-34.902-69c.4-3 .726-3.44741 2.902-4-2.176-.55259-2.5-1-2.902-4-.4 3-.726 3.44741-2.902 4 2.176.55259 2.502 1 2.902 4zm57.902 49c-2.176.5526-2.502 1-2.902 4-.4-3-.726-3.4474-2.902-4 2.176-.5526 2.502-1 2.902-4 .402 3 .726 3.4474 2.902 4zm-374.804 25c.5523 0 1-.4477 1-1s-.4477-1-1-1-1 .4477-1 1 .4477 1 1 1zm19-70c0 .5523-.4477 1-1 1s-1-.4477-1-1 .4477-1 1-1 1 .4477 1 1zm77 32c.552 0 1-.4477 1-1s-.448-1-1-1-1 .4477-1 1 .448 1 1 1zm-13-7c0 .5523-.4477 1-1 1s-1-.4477-1-1 .4477-1 1-1 1 .4477 1 1zm115 8c.552 0 1-.4477 1-1s-.448-1-1-1-1 .4477-1 1 .448 1 1 1zm-57-27c0 .5523-.448 1-1 1s-1-.4477-1-1 .448-1 1-1 1 .4477 1 1zm141 24c.552 0 1-.4477 1-1s-.448-1-1-1-1 .4477-1 1 .448 1 1 1zm87-5c0 .5523-.448 1-1 1s-1-.4477-1-1 .448-1 1-1 1 .4477 1 1zm-201 52c.552 0 1-.4477 1-1s-.448-1-1-1-1 .4477-1 1 .448 1 1 1zm156-21c0 .5523-.448 1-1 1s-1-.4477-1-1 .448-1 1-1 1 .4477 1 1zm-276-16c1.1046 0 2-.8954 2-2s-.8954-2-2-2-2 .8954-2 2 .8954 2 2 2zm11 31c0 1.1046-.8954 2-2 2s-2-.8954-2-2 .8954-2 2-2 2 .8954 2 2zm79-10c1.105 0 2-.8954 2-2s-.895-2-2-2-2 .8954-2 2 .895 2 2 2zm124-15c0 1.1046-.895 2-2 2s-2-.8954-2-2 .895-2 2-2 2 .8954 2 2zm85-8c1.105 0 2-.8954 2-2s-.895-2-2-2-2 .8954-2 2 .895 2 2 2zm22 36c0 1.1046-.895 2-2 2s-2-.8954-2-2 .895-2 2-2 2 .8954 2 2zm-145-72c1.105 0 2-.8954 2-2s-.895-2-2-2-2 .8954-2 2 .895 2 2 2zm90 12c0 1.1046-.895 2-2 2s-2-.8954-2-2 .895-2 2-2 2 .8954 2 2zm-211.5-15c1.381 0 2.5-1.1193 2.5-2.5s-1.119-2.5-2.5-2.5-2.5 1.1193-2.5 2.5 1.119 2.5 2.5 2.5zm110.5 67.5c0 1.3807-1.119 2.5-2.5 2.5s-2.5-1.1193-2.5-2.5 1.119-2.5 2.5-2.5 2.5 1.1193 2.5 2.5zm151.5-61.5c1.381 0 2.5-1.1193 2.5-2.5s-1.119-2.5-2.5-2.5-2.5 1.1193-2.5 2.5 1.119 2.5 2.5 2.5zm-42.5 72.5c0 1.3807-1.119 2.5-2.5 2.5s-2.5-1.1193-2.5-2.5 1.119-2.5 2.5-2.5 2.5 1.1193 2.5 2.5zm-311.5 1.5c1.3807 0 2.5-1.1193 2.5-2.5s-1.1193-2.5-2.5-2.5-2.5 1.1193-2.5 2.5 1.1193 2.5 2.5 2.5zm-11.5-60.5c0 1.3807-1.11929 2.5-2.5 2.5s-2.5-1.1193-2.5-2.5 1.11929-2.5 2.5-2.5 2.5 1.1193 2.5 2.5zm178.5 9.5c1.381 0 2.5-1.1193 2.5-2.5s-1.119-2.5-2.5-2.5-2.5 1.1193-2.5 2.5 1.119 2.5 2.5 2.5z" fill="#fff" fill-opacity=".4" fill-rule="evenodd"/></svg>